<?xml version="1.0" encoding="utf-8"?>
<!-- Generator: Adobe Illustrator 25.4.1, SVG Export Plug-In . SVG Version: 6.00 Build 0)  -->
<svg version="1.1" id="Layer_1" xmlns="http://www.w3.org/2000/svg" xmlns:xlink="http://www.w3.org/1999/xlink" x="0px" y="0px"
	 viewBox="0 0 379 165.3" style="enable-background:new 0 0 379 165.3;" xml:space="preserve">
<style type="text/css">
	.st0{fill:#E20D1C;}
	.st1{fill:#035E9B;}
	.st2{fill:#FFFFFF;}
</style>
<path class="st0" d="M154.8,118.2L119.9,40c-1.9,4.5-4.5,10.5-7.7,17.3l10.4,25h-22.3c-2,4-4,8-6.2,12.1h33.5l14.3,33.6l0,0l0,0
	h236.7v-9.8L154.8,118.2z"/>
<path class="st1" d="M297.4,41v30.8h-39.8V41h-13.8v6.7c0.9,1,1.8,2.1,2.6,3.3c3,4.9,4.6,10.5,4.5,16.2c0.1,5.7-1.4,11.3-4.5,16.2
	c-0.8,1.2-1.6,2.3-2.6,3.3v28.2h13.8V82.8h39.8v24.3l13.8-31V41H297.4z"/>
<path class="st1" d="M119.8,3.8c-4.6-4.4-12.6-4.9-24-1.7l-4.2,1.2c1.6,0.2,3.2,0.6,4.7,1.1c2.4,0.8,4.5,2.1,6.4,3.8
	c1.7,1.5,6.1,5.5-12.8,47.3C80.6,76.1,69.8,96.7,68,99.6c-12,22.8-29.7,47.9-40,48.9c-2,0.2-4-0.7-5.1-2.3c-4.9-6-6.2-17.2-3.6-31.4
	c4.3-24.2,19-53,30.8-60.4c12-8.3,24-1.5,30.2,3.4v-0.1c-4.7-13.3-13-20.5-23.2-20.5h-0.7C36.5,37.8,13.7,63.6,4.5,95.9
	c-7,24.6-5.6,47.4,3.7,59.7c4.8,6.4,11.8,9.8,20.2,9.8c0.5,0,2.5-0.2,3.1-0.1c0.1,0,0.3,0,0.4,0c11.8,0,28.1-17.3,47.5-50.4
	c2.7-4.6,5.4-9.5,8.3-14.7l1-1.8c0.7-1.3,1.3-2.6,2-3.8c2.2-4.1,4.2-8.1,6.2-12.1c5.3-10.6,10-20.6,13.8-29
	c3.2-7.1,5.8-13.1,7.6-17.2c1.6-3.8,2.6-6.1,2.6-6.1c0.3-0.7,1.3-3.7,1.8-5.5C124.9,15,124,7.8,119.8,3.8"/>
<path class="st1" d="M120.4,136.8L120.4,136.8l-0.4,0.1c-2.5,1-4.1,1.7-6.7,1.5c-5.3-0.4-13.8-19.6-21.3-40
	c-4.2,7.8-8.6,15.6-13.1,23c3.3,9.1,5.6,14.7,5.6,14.9c0.3,0.8,1.9,4.1,2.5,5.3c5.1,8.8,11,13.4,17.1,13.4l0,0
	c6.6,0,13-5.3,19.1-15.8l4.1-7.1C125.3,133.9,122.9,135.5,120.4,136.8"/>
<path class="st1" d="M81.9,63.4c-2.8-2.8-10.6-9.9-19.7-9.9c-2.2,0-4.4,0.5-6.5,1.3c0.2,0.1,0.3,0.1,0.5,0.2l0.1,0
	c2.4,1.3,5.2,8.5,7.6,16.1l0,0c1.8,6.5,3.7,13,5.6,19.3C73,83.7,77.8,74.2,82.5,64L81.9,63.4z"/>
<path class="st1" d="M228.6,78.8c-3.2,2.7-7.8,4-13.8,4H198V51.4h16.9c5.9,0,10.6,1.3,13.8,4s5,6.7,5,11.8S232,76.1,228.6,78.8
	 M215.9,41h-31.7v60.3H198v-7.9h17.9c5.9,0.1,11.7-1,17.1-3.2c4.4-1.9,8.2-5,10.9-9c2.6-4.2,3.9-9,3.8-13.9
	c0.1-4.9-1.2-9.7-3.8-13.9c-2.7-4-6.4-7.2-10.9-9.1C227.6,42,221.7,40.8,215.9,41"/>
<path class="st1" d="M337.7,51l15.6,37.7h-31.2L337.7,51z M311.2,114.9l6.9-16.8h39.2l6.9,16.8h14.3L345.4,41h-15.1l-33,73.9
	L311.2,114.9z"/>
<polygon class="st1" points="158.6,39.3 144.8,39.3 144.8,87.8 157,114.9 197.9,114.9 197.9,104.4 158.6,104.4 "/>
<polygon class="st2" points="366.2,152.3 366.2,132.1 369.2,132.1 375.7,144.3 375.7,132.1 379,132.1 379,152.3 376.2,152.3 
	369.5,139.7 369.5,152.3 "/>
<path class="st2" d="M240.7,143.1c2,0,3.3-1.3,3.3-4c0-2.5-1.2-3.9-3.2-3.9H239v8L240.7,143.1z M247.4,139.1c0,4.3-2.4,7-6.6,7H239
	v6.2h-3.4v-20.2h5.2C244.8,132.1,247.4,134.6,247.4,139.1"/>
<path class="st2" d="M253.7,135.1v7.3h1.8c2,0,3.2-1.1,3.2-3.6c0-2.3-1.1-3.7-3.2-3.7H253.7z M258.6,152.3l-3.2-6.8h-1.7v6.8h-3.4
	v-20.2h5.3c4,0,6.6,2.3,6.6,6.7c0,2.9-1.1,5-3.3,6l3.6,7.5L258.6,152.3z"/>
<path class="st2" d="M275.1,142.2c0-5-1.2-7.2-3.4-7.2s-3.4,2.1-3.4,7.2s1.1,7.2,3.4,7.2S275.1,147.3,275.1,142.2 M264.6,142.2
	c0-6.9,2.7-10.4,7.1-10.4s7.1,3.4,7.1,10.4s-2.7,10.4-7.1,10.4S264.6,149.2,264.6,142.2"/>
<path class="st2" d="M285.6,149.3h1.9c2.9,0,4.4-2.4,4.4-7.1s-1.5-7.1-4.4-7.1h-1.9V149.3z M282.3,152.3v-20.2h5.4
	c5,0,7.9,3.6,7.9,10.1s-2.9,10.1-7.9,10.1L282.3,152.3z"/>
<path class="st2" d="M298.6,146.2v-14.1h3.4v14.1c0,2.2,1,3.4,2.7,3.4s2.8-1.2,2.8-3.4v-14.1h3.4v14.1c0,4-2.2,6.4-6.1,6.4
	S298.6,150.2,298.6,146.2"/>
<path class="st2" d="M313.8,142.2c0-6.6,3-10.4,7.6-10.4c1.5,0,3,0.5,4.4,1.2l-0.9,3c-1-0.6-2.1-1-3.3-1c-2.5,0-4.2,2-4.2,7.2
	c0,4.9,1.6,7.2,4.1,7.2c1.2,0,2.4-0.3,3.5-1l0.9,3.1c-1.3,0.8-2.8,1.2-4.4,1.2C317.2,152.7,313.8,149.1,313.8,142.2"/>
<path class="st2" d="M359.1,142.2c0-5-1.2-7.2-3.4-7.2s-3.4,2.1-3.4,7.2s1.1,7.2,3.4,7.2S359.1,147.3,359.1,142.2 M348.5,142.2
	c0-6.9,2.7-10.4,7.1-10.4s7.1,3.4,7.1,10.4s-2.7,10.4-7.1,10.4S348.5,149.2,348.5,142.2"/>
<polygon class="st2" points="339.1,132.1 339.1,135.1 334.9,135.1 334.9,152.3 331.5,152.3 331.5,135.1 327.3,135.1 327.3,132.1 "/>
<rect x="341.8" y="132.1" class="st2" width="3.4" height="20.2"/>
<path class="st2" d="M173.5,141.5h4.8v9c-1.6,1.3-3.6,2.1-5.7,2.1c-4.5,0-7.2-3.7-7.2-10.4c0-7.1,3.1-10.4,7.7-10.4
	c1.6,0,3.1,0.4,4.5,1.1l-0.8,3.1c-1.1-0.6-2.3-0.9-3.5-1c-2.8,0-4.2,2.1-4.2,7.2c0,4.6,1.2,7.2,3.7,7.2c0.8,0,1.6-0.2,2.2-0.6v-4.3
	h-1.5V141.5z"/>
<path class="st2" d="M145.2,149.3h1.9c2.9,0,4.4-2.4,4.4-7.1s-1.5-7.1-4.4-7.1h-1.9V149.3z M141.8,152.3v-20.2h5.4
	c5,0,7.9,3.6,7.9,10.1s-2.9,10.1-7.9,10.1L141.8,152.3z"/>
<rect x="158.6" y="132.1" class="st2" width="3.4" height="20.2"/>
<rect x="181.6" y="132.1" class="st2" width="3.4" height="20.2"/>
<polygon class="st2" points="199.4,132.1 199.4,135.1 195.2,135.1 195.2,152.3 191.8,152.3 191.8,135.1 187.6,135.1 187.6,132.1 "/>
<path class="st2" d="M204.1,145.4h4.5l-2.2-8.5L204.1,145.4z M210.4,152.3l-1-3.7h-6.2l-1,3.7h-3.5l5.5-20.2h4.1l5.6,20.2H210.4z"/>
<polygon class="st2" points="216.5,152.3 216.5,132.1 220,132.1 220,149.3 226.6,149.3 226.6,152.3 "/>
</svg>
